<?xml version="1.0"?>
<svg xmlns="http://www.w3.org/2000/svg" viewBox="0 0 24 24" width="512" height="512"><g id="_01" data-name="01"><path d="M22,12l-4.72223,4.04761a8.102,8.102,0,0,1-9.32819.8656L9.946,15.41583a3.96167,3.96167,0,0,0,5.9079-4.43109l2.64618-1.98468ZM20.2998,6.40039l-16,12-.5996-.80078L6.27765,15.6665,2,12,6.72223,7.95233A8.08744,8.08744,0,0,1,16.92639,7.68L19.7002,5.59961ZM8.54016,13.9696l6.321-4.74078A3.956,3.956,0,0,0,12,8a4,4,0,0,0-4,4A3.90437,3.90437,0,0,0,8.54016,13.9696Z"/></g></svg>
