<svg height="512" viewBox="0 0 24 24" width="512" xmlns="http://www.w3.org/2000/svg"><g id="_01" data-name="01"><path d="m22 4v3h-20v-3zm-20 4h20v12h-20zm15 3a1 1 0 1 0 1-1 1 1 0 0 0 -1 1zm0 3a1 1 0 1 0 1-1 1 1 0 0 0 -1 1zm-4-3a1 1 0 1 0 1-1 1 1 0 0 0 -1 1zm0 3a1 1 0 1 0 1-1 1 1 0 0 0 -1 1zm0 3a1 1 0 1 0 1-1 1 1 0 0 0 -1 1zm-4-6a1 1 0 1 0 1-1 1 1 0 0 0 -1 1zm0 3a1 1 0 1 0 1-1 1 1 0 0 0 -1 1zm0 3a1 1 0 1 0 1-1 1 1 0 0 0 -1 1zm-4-6a1 1 0 1 0 1-1 1 1 0 0 0 -1 1zm0 3a1 1 0 1 0 1-1 1 1 0 0 0 -1 1zm0 3a1 1 0 1 0 1-1 1 1 0 0 0 -1 1z"/></g></svg>