<svg id="Vrstva_1" data-name="Vrstva 1" xmlns="http://www.w3.org/2000/svg" viewBox="0 0 121.21 56.42"><defs><style>.cls-1{fill:#10458d;}.cls-2{fill:#b1b3b4;}</style></defs><title>logo</title><path class="cls-1" d="M24.45,13.75H32V42.2c0,4.6-1.56,8.13-4.61,10.58a16.91,16.91,0,0,1-11,3.64c-6.46,0-11.54-2.51-14.17-7.29l6.58-3.77c1.49,2.81,4.12,4.19,7.83,4.19,4.84,0,7.83-2.63,7.83-7.35V39a11.2,11.2,0,0,1-9.57,4.54A14.3,14.3,0,0,1,4.24,39.09,15.37,15.37,0,0,1,0,28.21,15,15,0,0,1,4.3,17.39a14.09,14.09,0,0,1,10.58-4.48,11.2,11.2,0,0,1,9.57,4.54Zm-2.4,8.66a8.05,8.05,0,0,0-6-2.33,8.31,8.31,0,0,0-6,2.33,7.78,7.78,0,0,0-2.33,5.8,8,8,0,0,0,8.37,8.19,8,8,0,0,0,8.37-8.19A7.58,7.58,0,0,0,22.05,22.41Z"/><path class="cls-1" d="M39,43.63V0h7.71V43.63Z"/><path class="cls-1" d="M116.91,17.51a15.68,15.68,0,0,1,4.3,11.18,15.82,15.82,0,0,1-4.3,11.24,13.52,13.52,0,0,1-10.28,4.54c-4.18,0-7.41-1.44-9.68-4.37v3.53H89.24V1.79H97V17.27c2.27-2.93,5.5-4.36,9.68-4.36A13.54,13.54,0,0,1,116.91,17.51ZM105.19,37.12a8,8,0,0,0,5.92-2.33,8.24,8.24,0,0,0,2.39-6.1,8,8,0,0,0-2.39-6,8.51,8.51,0,0,0-11.83,0,8.19,8.19,0,0,0-2.33,6,8.43,8.43,0,0,0,2.33,6.1A8,8,0,0,0,105.19,37.12Z"/><path class="cls-1" d="M83,23.67A7.07,7.07,0,0,1,76.53,28l-.47,0c0,.23,0,.47,0,.72a8,8,0,0,1-2.33,5.92,8.38,8.38,0,0,1-11.6,0,8.25,8.25,0,0,1-2.27-5.92,8.25,8.25,0,0,1,2.27-5.92A7.85,7.85,0,0,1,68,20.44a9.7,9.7,0,0,1,1.54.13,7.05,7.05,0,0,1,4.92-6.36A16,16,0,0,0,68,12.91a15.32,15.32,0,0,0-11.24,4.6,15.15,15.15,0,0,0-4.54,11.18A15.51,15.51,0,0,0,68,44.47,15.62,15.62,0,0,0,83.8,28.69,16,16,0,0,0,83,23.67Z"/><path class="cls-2" d="M76.53,16.68a4.26,4.26,0,1,1-4.25,4.26,4.25,4.25,0,0,1,4.25-4.26"/></svg>