<svg id="Vrstva_1" data-name="Vrstva 1" xmlns="http://www.w3.org/2000/svg" xmlns:xlink="http://www.w3.org/1999/xlink" viewBox="0 0 1546 432"><defs><style>.cls-1{fill:url(#Nepojmenovaný_přechod_49);}.cls-2{fill:url(#Nepojmenovaný_přechod_60);}.cls-3{fill:url(#Nepojmenovaný_přechod_40);}.cls-4{fill:url(#Nepojmenovaný_přechod_85);}.cls-5{fill:url(#Nepojmenovaný_přechod_98);}.cls-6{fill:url(#Nepojmenovaný_přechod_72);}.cls-7{fill:url(#Nepojmenovaný_přechod_22);}.cls-8{fill:url(#Nepojmenovaný_přechod_109);}.cls-9{fill:url(#Nepojmenovaný_přechod_85-2);}.cls-10{fill:url(#Nepojmenovaný_přechod_49-2);}.cls-11{fill:url(#Nepojmenovaný_přechod_40-2);}.cls-12{fill:url(#Nepojmenovaný_přechod_72-2);}.cls-13{fill:url(#Nepojmenovaný_přechod_60-2);}.cls-14{fill:url(#Nepojmenovaný_přechod_22-2);}</style><linearGradient id="Nepojmenovaný_přechod_49" x1="349.59" y1="535.06" x2="349.59" y2="314.06" gradientTransform="translate(630 14) rotate(90)" gradientUnits="userSpaceOnUse"><stop offset="0" stop-color="#cc2b5e"/><stop offset="1" stop-color="#753a88"/></linearGradient><linearGradient id="Nepojmenovaný_přechod_60" x1="451.41" y1="322.93" x2="451.41" y2="101.93" gradientTransform="translate(639 -166) rotate(90)" gradientUnits="userSpaceOnUse"><stop offset="0" stop-color="#ee9ca7"/><stop offset="1" stop-color="#ffdde1"/></linearGradient><linearGradient id="Nepojmenovaný_přechod_40" x1="237.86" y1="283.33" x2="237.86" y2="62.33" gradientTransform="translate(477 -131) rotate(90)" gradientUnits="userSpaceOnUse"><stop offset="0" stop-color="#2193b0"/><stop offset="1" stop-color="#6dd5ed"/></linearGradient><linearGradient id="Nepojmenovaný_přechod_85" x1="340.39" y1="43.62" x2="340.39" y2="-177.38" gradientTransform="translate(479 -331) rotate(90)" gradientUnits="userSpaceOnUse"><stop offset="0" stop-color="#de6262"/><stop offset="1" stop-color="#ffb88c"/></linearGradient><linearGradient id="Nepojmenovaný_přechod_98" x1="511.51" y1="-103.46" x2="511.51" y2="-324.46" gradientTransform="translate(557 -485) rotate(90)" gradientUnits="userSpaceOnUse"><stop offset="0" stop-color="#06beb6"/><stop offset="1" stop-color="#48b1bf"/></linearGradient><linearGradient id="Nepojmenovaný_přechod_72" x1="599.19" y1="165.24" x2="599.19" y2="-55.76" gradientTransform="translate(698 -321) rotate(90)" gradientUnits="userSpaceOnUse"><stop offset="0" stop-color="#42275a"/><stop offset="1" stop-color="#734b6d"/></linearGradient><linearGradient id="Nepojmenovaný_přechod_22" x1="829.71" y1="187.87" x2="829.71" y2="-33.13" gradientTransform="translate(867 -372) rotate(90)" gradientUnits="userSpaceOnUse"><stop offset="0" stop-color="#ffafbd"/><stop offset="1" stop-color="#ffc3a0"/></linearGradient><linearGradient id="Nepojmenovaný_přechod_109" x1="722.23" y1="-119.01" x2="722.23" y2="-340.01" gradientTransform="translate(701 -558) rotate(90)" gradientUnits="userSpaceOnUse"><stop offset="0" stop-color="#eb3349"/><stop offset="1" stop-color="#f45c43"/></linearGradient><linearGradient id="Nepojmenovaný_přechod_85-2" x1="797.89" y1="-389.83" x2="797.89" y2="-610.83" gradientTransform="translate(676 -771) rotate(90)" xlink:href="#Nepojmenovaný_přechod_85"/><linearGradient id="Nepojmenovaný_přechod_49-2" x1="1101.24" y1="-143.05" x2="1101.24" y2="-364.05" gradientTransform="translate(962 -686) rotate(90)" xlink:href="#Nepojmenovaný_přechod_49"/><linearGradient id="Nepojmenovaný_přechod_40-2" x1="890.52" y1="-141.64" x2="890.52" y2="-362.64" gradientTransform="translate(814 -623) rotate(90)" xlink:href="#Nepojmenovaný_přechod_40"/><linearGradient id="Nepojmenovaný_přechod_72-2" x1="1068.01" y1="-525.6" x2="1068.01" y2="-746.6" gradientTransform="translate(827 -947) rotate(90)" xlink:href="#Nepojmenovaný_přechod_72"/><linearGradient id="Nepojmenovaný_přechod_60-2" x1="941.43" y1="-554.59" x2="941.43" y2="-775.59" gradientTransform="translate(729 -930) rotate(90)" xlink:href="#Nepojmenovaný_přechod_60"/><linearGradient id="Nepojmenovaný_přechod_22-2" x1="126.85" y1="477.79" x2="126.85" y2="256.79" gradientTransform="translate(455 39) rotate(90)" xlink:href="#Nepojmenovaný_přechod_22"/></defs><title>patternCustom</title><rect class="cls-1" x="94" y="335" width="221" height="58" rx="29" transform="translate(-197 251) rotate(-45)"/><rect class="cls-2" x="316" y="257" width="221" height="58" rx="29" transform="translate(-77 386) rotate(-45)"/><rect class="cls-3" x="193" y="78" width="221" height="58" rx="29" transform="translate(14 246) rotate(-45)"/><rect class="cls-4" x="435" y="-20" width="221" height="58" rx="29" transform="translate(153 389) rotate(-45)"/><rect class="cls-5" x="660" y="-2" width="221" height="58" rx="29" transform="translate(207 553) rotate(-45)"/><rect class="cls-6" x="532" y="250" width="221" height="58" rx="29" transform="translate(-9 536) rotate(-45)"/><rect class="cls-7" x="679" y="429" width="221" height="58" rx="29" transform="translate(-92 693) rotate(-45)"/><rect class="cls-8" x="820" y="135" width="221" height="58" rx="29" transform="translate(156 706) rotate(-45)"/><rect class="cls-9" x="1065" y="-3" width="221" height="58" rx="29" transform="translate(326 839) rotate(-45)"/><rect class="cls-10" x="1105" y="387" width="221" height="58" rx="29" transform="translate(62 982) rotate(-45)"/><rect class="cls-11" x="955" y="239" width="221" height="58" rx="29" transform="translate(123 832) rotate(-45)"/><rect class="cls-12" x="1352" y="92" width="221" height="58" rx="29" transform="translate(343 1070) rotate(-45)"/><rect class="cls-13" x="1283" y="-18" width="221" height="58" rx="29" transform="translate(400 989) rotate(-45)"/><rect class="cls-14" x="-23" y="137" width="221" height="58" rx="29" transform="translate(-91 111) rotate(-45)"/></svg>