<svg xmlns="http://www.w3.org/2000/svg" xmlns:xlink="http://www.w3.org/1999/xlink" xmlns:fi="http://pattern.flaticon.com/" x="0" y="0" width="700" height="350" viewBox="0 0 700 350"><rect x="0px" y="0px" width="100%" height="100%" opacity="1" fill="#fff4f4"/><defs><g transform="matrix(0.07100743055343628 0 0 0.07100743055343628 335 160)" id="L1_181"><path d="M338.594,289.207c-36.805,0-66.641,29.836-66.641,66.641c0,36.808,29.836,66.644,66.641,66.644     c36.807,0,66.643-29.836,66.643-66.644C405.235,319.043,375.399,289.207,338.594,289.207z M381.889,388.121l-10.424,10.423     c-0.855,0.858-2.252,0.858-3.108,0l-20.532-20.533l-0.779,0.777c-0.858,0.858-2.25,0.858-3.108,0l-4.979-4.979     c-0.856-0.857-0.856-2.251,0-3.109l5.104-5.104l-4.543-4.544l-11.429,11.432c2.123,6.051,0.771,13.062-4.059,17.892     c-3.271,3.27-7.615,5.059-12.24,5.04c-0.396-0.003-0.771-0.163-1.037-0.435c-0.135-0.137-0.246-0.298-0.321-0.48     c-0.228-0.551-0.101-1.187,0.321-1.606l4.799-4.802l-2.866-10.707l-10.706-2.868l-4.803,4.802     c-0.422,0.422-1.057,0.549-1.605,0.319c-0.551-0.227-0.912-0.764-0.914-1.357c-0.021-4.624,1.771-8.972,5.037-12.239     c4.832-4.829,11.842-6.183,17.895-4.058l11.429-11.431l-15.086-15.084l-10.685-6.877l-4.766-8.412l5.041-5.039l8.409,4.767     l6.879,10.684l15.084,15.084l10.229-10.229c-2.123-6.052-0.771-13.063,4.06-17.894c3.271-3.269,7.614-5.058,12.239-5.039     c0.597,0.004,1.132,0.362,1.359,0.914c0.227,0.554,0.1,1.188-0.322,1.607l-4.801,4.801l2.869,10.708l10.707,2.868l4.803-4.801     c0.42-0.423,1.055-0.55,1.604-0.321c0.551,0.228,0.91,0.763,0.914,1.357c0.021,4.625-1.771,8.972-5.036,12.24     c-4.832,4.829-11.843,6.184-17.896,4.06l-10.229,10.229l4.541,4.544l5.104-5.104c0.859-0.859,2.252-0.859,3.111,0l4.977,4.977     c0.859,0.859,0.859,2.253,0,3.111l-0.776,0.776l20.532,20.532C382.749,385.869,382.749,387.262,381.889,388.121z"/><path d="M303.637,280.498l-40.977-16.338l-19.881-16.748c-5.25-4.438-13.004-4.109-17.873,0.731l-27.639,27.48l-27.717-27.492     c-4.873-4.832-12.617-5.145-17.863-0.722l-19.879,16.748l-84.894,33.854c-27.336,10.886-27.314,107.693-29.66,116.579h261.183     c-15.414-14.857-25.032-35.692-25.032-58.745C253.403,321.956,274.167,292.829,303.637,280.498z"/><path d="M100.042,160.169l15.943-0.04c9.848,51.453,44.795,80.728,81.27,80.728c36.475,0,57.666-17.339,71.719-49.293     c-10.729,8.416-26.324,16.114-48.135,17.704c-2.004,2.985-5.41,4.951-9.277,4.951h-10.188c-6.168,0-11.166-4.999-11.166-11.167     s4.998-11.167,11.166-11.167h10.188c3.613,0,6.814,1.723,8.855,4.383c35.068-2.815,51.559-24.083,58.135-36.091l15.916-0.006     c9.746,0,17.646-7.903,17.646-17.646v-39.996c0-6.246-3.254-11.723-8.152-14.859C298.067,38.434,252.464,0,197.255,0     S96.444,38.434,90.55,87.668c-4.898,3.137-8.152,8.613-8.152,14.859v39.996C82.396,152.265,90.295,160.169,100.042,160.169z      M197.254,19.999c43.453,0,79.592,28.656,86.254,66.041c-2.082,0.791-3.971,1.959-5.59,3.429     c-10.406-32.855-40.471-52.385-80.664-52.385c-40.193,0-70.275,19.519-80.695,52.357c-1.611-1.456-3.49-2.616-5.559-3.401     C117.663,48.655,153.801,19.999,197.254,19.999z"/></g><path d="m408 184h-136c-4.417969 0-8-3.582031-8-8v-136c0-22.089844-17.910156-40-40-40s-40 17.910156-40 40v136c0 4.417969-3.582031 8-8 8h-136c-22.089844 0-40 17.910156-40 40s17.910156 40 40 40h136c4.417969 0 8 3.582031 8 8v136c0 22.089844 17.910156 40 40 40s40-17.910156 40-40v-136c0-4.417969 3.582031-8 8-8h136c22.089844 0 40-17.910156 40-40s-17.910156-40-40-40zm0 0" transform="matrix(0.1116071417927742 0 0 0.1116071417927742 150 325)" id="L1_182"/><path d="M165,0C74.019,0,0,74.019,0,165s74.019,165,165,165c90.982,0,165-74.019,165-165S255.982,0,165,0z" transform="matrix(0.03030303120613098 0 0 0.03030303120613098 257.5 257.5)" id="L1_183" fill="#7bcaed"/><path d="M26.285,2.486l5.407,10.956c0.376,0.762,1.103,1.29,1.944,1.412l12.091,1.757  c2.118,0.308,2.963,2.91,1.431,4.403l-8.749,8.528c-0.608,0.593-0.886,1.448-0.742,2.285l2.065,12.042  c0.362,2.109-1.852,3.717-3.746,2.722l-10.814-5.685c-0.752-0.395-1.651-0.395-2.403,0l-10.814,5.685  c-1.894,0.996-4.108-0.613-3.746-2.722l2.065-12.042c0.144-0.837-0.134-1.692-0.742-2.285l-8.749-8.528  c-1.532-1.494-0.687-4.096,1.431-4.403l12.091-1.757c0.841-0.122,1.568-0.65,1.944-1.412l5.407-10.956  C22.602,0.567,25.338,0.567,26.285,2.486z" transform="matrix(1.8773466348648071 0 0 1.8773466348648071 305 305)" fill="#ed8a19" id="L1_184"/><path d="M367.711,63.089C327.027,22.405,272.936,0,215.4,0C157.865,0,103.773,22.406,63.089,63.09    C22.405,103.773,0,157.865,0,215.4c0,57.536,22.406,111.627,63.09,152.313c40.683,40.682,94.775,63.088,152.31,63.088    c57.536,0,111.627-22.406,152.311-63.09s63.09-94.775,63.09-152.311C430.801,157.865,408.395,103.773,367.711,63.089z     M409.721,205h-56.459C348.182,137.041,293.76,82.618,225.8,77.539V21.08C324.842,26.321,404.479,105.958,409.721,205z     M316.355,275.355c-2.918-0.932-6.025-1.437-9.25-1.437c-16.847,0-30.552,13.705-30.552,30.551c0,3.535,0.609,6.931,1.722,10.09    c-15.434,9.82-33.3,16.134-52.477,17.824v-60.666c23.259-4.285,41.632-22.658,45.919-45.918h60.666    C330.799,243.779,325.148,260.605,316.355,275.355z M205,225.8v24.563c-11.766-3.506-21.056-12.797-24.563-24.563H205z     M180.437,205c3.506-11.766,12.797-21.056,24.563-24.563V205H180.437z M225.8,225.8h24.563    c-3.506,11.768-12.797,21.057-24.563,24.563V225.8z M225.8,205v-24.563c11.768,3.506,21.057,12.797,24.563,24.563H225.8z     M205,100.39c-11.741,4.264-20.151,15.53-20.151,28.726c0,13.196,8.41,24.462,20.151,28.726v1.239    c-23.259,4.286-41.632,22.659-45.918,45.918H98.416c4.98-56.48,50.104-101.604,106.584-106.584V100.39z M99.704,235.658    c-0.566-3.242-0.995-6.53-1.288-9.857h60.666c4.286,23.26,22.659,41.633,45.918,45.918v60.666    c-34.217-3.018-64.269-20.761-83.751-46.846c4.353-5.28,6.971-12.042,6.971-19.404    C128.219,249.973,115.603,236.711,99.704,235.658z M271.719,205c-4.287-23.259-22.66-41.632-45.919-45.918v-1.239    c11.741-4.264,20.151-15.53,20.151-28.726c0-13.196-8.41-24.462-20.151-28.726v-1.975c56.479,4.98,101.604,50.104,106.585,106.584    H271.719L271.719,205z M205,21.08v56.459C137.041,82.618,82.618,137.041,77.539,205H21.08    C26.321,105.958,105.958,26.321,205,21.08z M21.08,225.8h56.459c0.398,5.322,1.106,10.559,2.092,15.696    c-7.581,5.563-12.514,14.533-12.514,24.638c0,16.848,13.705,30.552,30.551,30.552c1.911,0,3.779-0.186,5.594-0.521    c23.225,32.155,59.915,53.973,101.737,57.098v56.46C105.958,404.479,26.321,324.842,21.08,225.8z M225.8,409.721v-56.46    c24.159-1.806,46.604-9.853,65.731-22.521c4.563,2.716,9.891,4.281,15.574,4.281c16.846,0,30.551-13.705,30.551-30.552    c0-6-1.746-11.598-4.746-16.323c11.416-18.371,18.649-39.6,20.352-62.348h56.459C404.479,324.842,324.842,404.479,225.8,409.721z" transform="matrix(0.16248801350593567 0 0 0.16248801350593567 140 140)" id="L1_185"/></defs><g fi:class="KUsePattern"><pattern id="pattern_L1_181" width="350" height="350" patternUnits="userSpaceOnUse"><use xlink:href="#L1_181" x="-350" y="-350"/><use xlink:href="#L1_181" x="0" y="-350"/><use xlink:href="#L1_181" x="350" y="-350"/><use xlink:href="#L1_181" x="-350" y="0"/><use xlink:href="#L1_181" x="0" y="0"/><use xlink:href="#L1_181" x="350" y="0"/><use xlink:href="#L1_181" x="-350" y="350"/><use xlink:href="#L1_181" x="0" y="350"/><use xlink:href="#L1_181" x="350" y="350"/></pattern><rect x="0" y="0" width="100%" height="100%" fill="url(#pattern_L1_181)"/></g><g fi:class="KUsePattern"><pattern id="pattern_L1_182" width="350" height="350" patternUnits="userSpaceOnUse"><use xlink:href="#L1_182" x="-350" y="-350"/><use xlink:href="#L1_182" x="0" y="-350"/><use xlink:href="#L1_182" x="350" y="-350"/><use xlink:href="#L1_182" x="-350" y="0"/><use xlink:href="#L1_182" x="0" y="0"/><use xlink:href="#L1_182" x="350" y="0"/><use xlink:href="#L1_182" x="-350" y="350"/><use xlink:href="#L1_182" x="0" y="350"/><use xlink:href="#L1_182" x="350" y="350"/></pattern><rect x="0" y="0" width="100%" height="100%" fill="url(#pattern_L1_182)"/></g><g fi:class="KUsePattern"><pattern id="pattern_L1_183" width="350" height="350" patternUnits="userSpaceOnUse"><use xlink:href="#L1_183" x="-350" y="-350"/><use xlink:href="#L1_183" x="0" y="-350"/><use xlink:href="#L1_183" x="350" y="-350"/><use xlink:href="#L1_183" x="-350" y="0"/><use xlink:href="#L1_183" x="0" y="0"/><use xlink:href="#L1_183" x="350" y="0"/><use xlink:href="#L1_183" x="-350" y="350"/><use xlink:href="#L1_183" x="0" y="350"/><use xlink:href="#L1_183" x="350" y="350"/></pattern><rect x="0" y="0" width="100%" height="100%" fill="url(#pattern_L1_183)"/></g><g fi:class="KUsePattern"><pattern id="pattern_L1_184" width="350" height="350" patternUnits="userSpaceOnUse"><use xlink:href="#L1_184" x="-350" y="-350"/><use xlink:href="#L1_184" x="0" y="-350"/><use xlink:href="#L1_184" x="350" y="-350"/><use xlink:href="#L1_184" x="-350" y="0"/><use xlink:href="#L1_184" x="0" y="0"/><use xlink:href="#L1_184" x="350" y="0"/><use xlink:href="#L1_184" x="-350" y="350"/><use xlink:href="#L1_184" x="0" y="350"/><use xlink:href="#L1_184" x="350" y="350"/></pattern><rect x="0" y="0" width="100%" height="100%" fill="url(#pattern_L1_184)"/></g><g fi:class="KUsePattern"><pattern id="pattern_L1_185" width="350" height="350" patternUnits="userSpaceOnUse"><use xlink:href="#L1_185" x="-350" y="-350"/><use xlink:href="#L1_185" x="0" y="-350"/><use xlink:href="#L1_185" x="350" y="-350"/><use xlink:href="#L1_185" x="-350" y="0"/><use xlink:href="#L1_185" x="0" y="0"/><use xlink:href="#L1_185" x="350" y="0"/><use xlink:href="#L1_185" x="-350" y="350"/><use xlink:href="#L1_185" x="0" y="350"/><use xlink:href="#L1_185" x="350" y="350"/></pattern><rect x="0" y="0" width="100%" height="100%" fill="url(#pattern_L1_185)"/></g></svg>